<svg id="LOGO" xmlns="http://www.w3.org/2000/svg" width="604" height="612" viewBox="0 0 604 612">
  <metadata><?xpacket begin="﻿" id="W5M0MpCehiHzreSzNTczkc9d"?>
<x:xmpmeta xmlns:x="adobe:ns:meta/" x:xmptk="Adobe XMP Core 5.6-c138 79.159824, 2016/09/14-01:09:01        ">
   <rdf:RDF xmlns:rdf="http://www.w3.org/1999/02/22-rdf-syntax-ns#">
      <rdf:Description rdf:about=""/>
   </rdf:RDF>
</x:xmpmeta>





















<?xpacket end="w"?></metadata>
<defs>
    <style>
      .cls-1, .cls-2 {
        fill: #ffffff;
      }

      .cls-2 {
        fill-rule: evenodd;
      }
    </style>
  </defs>
  <g id="Corners">
    <g>
      <g>
        <rect class="cls-1" y="-0.156" width="229.094" height="58.312"/>
        <rect id="Rectangle_2_copy" data-name="Rectangle 2 copy" class="cls-1" y="4" width="58.313" height="229.094"/>
      </g>
      <g id="Group_2_copy" data-name="Group 2 copy">
        <rect class="cls-1" y="553.844" width="229.094" height="58.312"/>
        <rect id="Rectangle_2_copy-2" data-name="Rectangle 2 copy" class="cls-1" y="378.906" width="58.313" height="229.094"/>
      </g>
    </g>
    <g id="Group_3_copy" data-name="Group 3 copy">
      <g>
        <rect class="cls-1" x="374.906" y="-0.344" width="229.094" height="58.344"/>
        <rect id="Rectangle_2_copy-3" data-name="Rectangle 2 copy" class="cls-1" x="545.688" y="3.844" width="58.312" height="229.094"/>
      </g>
      <g id="Group_2_copy-2" data-name="Group 2 copy">
        <rect class="cls-1" x="374.906" y="553.688" width="229.094" height="58.312"/>
        <rect id="Rectangle_2_copy-4" data-name="Rectangle 2 copy" class="cls-1" x="545.688" y="378.719" width="58.312" height="229.125"/>
      </g>
    </g>
  </g>
  <path id="DU" class="cls-2" d="M144.617,404.653h70.972q35.845,0,57.044-16.713T295.281,337.8q0.483-13.08.485-17.682,0-4.844-.485-18.41-0.726-21.073-11.384-36.091a66.695,66.695,0,0,0-28.583-22.769q-17.928-7.751-40.936-7.752H144.617a6.618,6.618,0,0,0-6.54,6.54V398.113a6.618,6.618,0,0,0,6.54,6.54h0Zm54.016-47.234v-75.09h14.534q8.719,0,14.412,4.845t6.177,14.533q0.483,6.54.485,17.925,0,11.145-.485,18.167-0.487,9.692-5.692,14.655t-13.686,4.965H198.633Zm191.114,49.657q36.09,0,57.165-16.593t21.074-49.777V241.635a6.618,6.618,0,0,0-6.54-6.54H413.97a6.618,6.618,0,0,0-6.541,6.54v98.1q0,9.208-4.481,13.928t-13.443,4.723q-8.964,0-13.444-4.723t-4.481-13.928v-98.1a6.618,6.618,0,0,0-6.54-6.54H317.564a6.617,6.617,0,0,0-6.54,6.54v99.071q0,33.188,21.194,49.777t57.529,16.593h0Z"/>
</svg>
